<svg xmlns="http://www.w3.org/2000/svg" version="1.1" xmlns:xlink="http://www.w3.org/1999/xlink" xmlns:svgjs="http://svgjs.dev/svgjs" width="1500" height="303" viewBox="0 0 1500 303"><g transform="matrix(1,0,0,1,-0.9090909090909918,-0.46831081391871976)"><svg viewBox="0 0 396 80" data-background-color="#ffffff" preserveAspectRatio="xMidYMid meet" height="303" width="1500" xmlns="http://www.w3.org/2000/svg" xmlns:xlink="http://www.w3.org/1999/xlink"><g id="tight-bounds" transform="matrix(1,0,0,1,0.2400000000000091,0.12364641951648991)"><svg viewBox="0 0 395.52 79.75239641332418" height="79.75239641332418" width="395.52"><g><svg viewBox="0 0 522.2571326128633 105.3075896789722" height="79.75239641332418" width="395.52"><g transform="matrix(1,0,0,1,126.73713261286329,29.96031590273366)"><svg viewBox="0 0 395.52 45.38695787350488" height="45.38695787350488" width="395.52"><g id="textblocktransform"><svg viewBox="0 0 395.52 45.38695787350488" height="45.38695787350488" width="395.52" id="textblock"><g><svg viewBox="0 0 395.52 45.38695787350488" height="45.38695787350488" width="395.52"><g transform="matrix(1,0,0,1,0,0)"><svg width="395.52" viewBox="4.47 -41.99 370.16132977053195 42.480000000000004" height="45.38695787350488" data-palette-color="#096a2e"><path d="M18.6-3.03L18.82-3.03Q22.8-3.03 26.83-4.57L26.83-4.57 27.91-1.2Q26.05-0.27 23.44 0.11 20.83 0.49 18.82 0.49L18.82 0.49 18.48 0.49Q9.79 0.49 6.84-4.49L6.84-4.49Q5.03-7.52 4.64-12.65L4.64-12.65Q4.47-15.11 4.47-18.04 4.47-20.97 4.63-23.62 4.79-26.27 5.27-28.48 5.76-30.69 6.69-32.42 7.62-34.16 9.18-35.35L9.18-35.35Q12.35-37.84 18.41-37.84L18.41-37.84Q22.31-37.84 24.69-37.34 27.08-36.84 27.91-36.52L27.91-36.52 26.81-32.67Q22.05-34.33 18.66-34.33 15.28-34.33 13.46-33.51 11.65-32.69 10.62-30.81L10.62-30.81Q8.84-27.59 8.84-18.53L8.84-18.53 8.84-16.72Q8.84-9.28 10.77-6.32L10.77-6.32Q12.92-3.03 18.6-3.03L18.6-3.03ZM33.74-14.45L33.74-14.45Q33.74-20 34.3-22.19 34.86-24.39 35.68-25.67 36.5-26.95 37.89-27.81L37.89-27.81Q40.67-29.54 46.12-29.54L46.12-29.54Q53.98-29.54 56.22-25.66L56.22-25.66Q57.57-23.32 57.76-19.04L57.76-19.04Q57.83-17.02 57.83-14.58 57.83-12.13 57.68-10.02 57.52-7.91 57.05-6.23 56.59-4.54 55.76-3.28 54.93-2.03 53.56-1.17L53.56-1.17Q50.88 0.49 45.73 0.49L45.73 0.49Q38.01 0.49 35.59-3.32L35.59-3.32Q34.1-5.69 33.86-9.96L33.86-9.96Q33.74-12.01 33.74-14.45ZM40.38-4.27Q41.26-3.61 42.59-3.28 43.92-2.95 46.23-2.95 48.53-2.95 50.11-3.61 51.68-4.27 52.48-5.73 53.27-7.18 53.48-9.5 53.68-11.82 53.68-14.89 53.68-17.97 53.5-20.02 53.32-22.07 52.59-23.41L52.59-23.41Q51.12-26.05 46.07-26.05L46.07-26.05Q40.72-26.05 39.11-23.41L39.11-23.41Q38.3-22.07 38.08-20 37.86-17.92 37.86-15.48 37.86-13.04 37.92-11.34 37.99-9.64 38.24-8.29 38.5-6.93 39-5.93 39.5-4.93 40.38-4.27ZM76.68-38.48Q74.8-38.48 73.82-37.66 72.85-36.84 72.85-34.44 72.85-32.03 73.75-29.05L73.75-29.05 80.66-29.05 80.66-25.66 73.7-25.66 73.7 0 69.77 0 69.77-25.66 64.91-25.66 64.91-28.66 69.72-29.05Q69.4-29.71 69.11-31.91 68.82-34.11 68.82-35.06L68.82-35.06Q68.82-41.99 76.92-41.99L76.92-41.99Q79.85-41.99 82.47-41.36L82.47-41.36 81.73-37.72Q78.56-38.48 76.68-38.48ZM97.53-38.48Q95.65-38.48 94.67-37.66 93.69-36.84 93.69-34.44 93.69-32.03 94.6-29.05L94.6-29.05 101.51-29.05 101.51-25.66 94.55-25.66 94.55 0 90.62 0 90.62-25.66 85.76-25.66 85.76-28.66 90.57-29.05Q90.25-29.71 89.96-31.91 89.67-34.11 89.67-35.06L89.67-35.06Q89.67-41.99 97.77-41.99L97.77-41.99Q100.7-41.99 103.31-41.36L103.31-41.36 102.58-37.72Q99.41-38.48 97.53-38.48ZM131.12-5.03L132.31-1.54Q127.26 0.49 121.16 0.49L121.16 0.49Q117.62 0.49 115.15-0.24L115.15-0.24Q111.22-1.37 109.93-4.88L109.93-4.88Q108.73-8.18 108.73-14.65L108.73-14.65 108.73-15.89Q108.73-23.63 111.95-26.76L111.95-26.76Q114.86-29.54 121.65-29.54L121.65-29.54Q128.26-29.54 130.68-26.27L130.68-26.27Q131.85-24.68 132.23-22.42 132.61-20.17 132.61-18.12L132.61-18.12Q132.61-14.92 132.46-13.16L132.46-13.16Q129.02-13.01 126.28-13.01L126.28-13.01Q126.28-13.01 122.35-13.01L122.35-13.01Q116.2-13.01 112.88-13.55L112.88-13.55Q112.88-7.93 114.3-5.71L114.3-5.71Q116.03-3 121.21-3 126.38-3 131.12-5.03L131.12-5.03ZM112.88-16.41L128.48-16.41 128.48-18.75Q128.48-22.58 126.99-24.22L126.99-24.22Q125.33-26.05 121.25-26.05L121.25-26.05Q116.37-26.05 114.59-23.93L114.59-23.93Q112.88-21.9 112.88-16.41L112.88-16.41ZM164.42-5.03L165.61-1.54Q160.56 0.49 154.46 0.49L154.46 0.49Q150.92 0.49 148.45-0.24L148.45-0.24Q144.52-1.37 143.22-4.88L143.22-4.88Q142.03-8.18 142.03-14.65L142.03-14.65 142.03-15.89Q142.03-23.63 145.25-26.76L145.25-26.76Q148.16-29.54 154.94-29.54L154.94-29.54Q161.56-29.54 163.98-26.27L163.98-26.27Q165.15-24.68 165.53-22.42 165.91-20.17 165.91-18.12L165.91-18.12Q165.91-14.92 165.76-13.16L165.76-13.16Q162.32-13.01 159.58-13.01L159.58-13.01Q159.58-13.01 155.65-13.01L155.65-13.01Q149.5-13.01 146.18-13.55L146.18-13.55Q146.18-7.93 147.59-5.71L147.59-5.71Q149.33-3 154.5-3 159.68-3 164.42-5.03L164.42-5.03ZM146.18-16.41L161.78-16.41 161.78-18.75Q161.78-22.58 160.29-24.22L160.29-24.22Q158.63-26.05 154.55-26.05L154.55-26.05Q149.67-26.05 147.89-23.93L147.89-23.93Q146.18-21.9 146.18-16.41L146.18-16.41ZM196.54-3.1L196.54-3.1Q192 0.46 185.97 0.46L185.97 0.46Q181.33 0.46 179.01-1.64L179.01-1.64Q176.35-4.05 176.35-9.38L176.35-9.38Q176.35-14.18 177.79-16.48L177.79-16.48Q179.01-18.43 182.28-19.85L182.28-19.85Q180.14-20.9 179.33-22L179.33-22Q177.67-24.22 177.67-28.05L177.67-28.05Q177.67-37.79 188.85-37.79L188.85-37.79Q194.2-37.79 198.62-35.99L198.62-35.99 197.32-32.42Q194.98-33.64 191.37-34.25L191.37-34.25Q190.05-34.47 188.44-34.47 186.83-34.47 185.5-34.22 184.16-33.96 183.36-33.2L183.36-33.2Q181.8-31.81 181.8-27.49L181.8-27.49Q181.8-22.53 185.7-21.39L185.7-21.39Q186.87-21.04 188.17-21.04L188.17-21.04 196.03-21.04 197.08-27.49 199.91-27.49 199.91-21.04 207.09-21.04Q207.19-20.36 207.19-19.48L207.19-19.48Q207.19-18.58 207.09-17.9L207.09-17.9 199.91-17.9 199.91-7.47Q199.91-4.59 200.18-3.93 200.45-3.27 200.89-3.05 201.33-2.83 202.11-2.83L202.11-2.83Q204.45-2.83 207.11-4.13L207.11-4.13 208.26-1.27Q205.28 0.46 201.28 0.46L201.28 0.46Q199.2 0.46 198.03-0.5 196.86-1.46 196.54-3.1ZM183.27-17.02Q181.94-16.14 181.27-14.7 180.6-13.26 180.6-10.9 180.6-8.54 180.84-7.03 181.09-5.52 181.75-4.57L181.75-4.57Q182.99-2.76 186.53-2.76L186.53-2.76Q192-2.76 196.03-6.18L196.03-6.18 196.03-17.9 188.1-17.9Q184.6-17.9 183.27-17.02ZM232.62-11.72L232.62-11.72Q231.62-11.67 229.12-11.67 226.62-11.67 222.2-12.33L222.2-12.33 222.2 0 218.05 0 218.05-37.21Q225.15-37.87 232.18-37.87L232.18-37.87Q238.09-37.87 240.46-35.21L240.46-35.21Q242.46-32.96 242.46-27.78L242.46-27.78 242.46-24.9Q242.46-20.9 241.58-18.07L241.58-18.07Q239.7-12.16 232.62-11.72ZM232.36-34.35L232.36-34.35Q225.67-34.35 222.2-34.08L222.2-34.08 222.2-15.77Q226.47-15.21 229.8-15.21 233.14-15.21 234.59-15.69 236.04-16.16 236.85-17.29L236.85-17.29Q238.21-19.19 238.21-24.85L238.21-24.85 238.21-27.88Q238.21-31.37 236.85-32.86L236.85-32.86Q235.53-34.35 232.36-34.35ZM251.96 0L251.91-41.5 255.94-41.85 255.94 0 251.96 0ZM289.94-19.41L289.94-10.3Q289.94-5.44 290.41-0.2L290.41-0.2 286.79 0.1 286.18-3.3Q283.08-0.81 277.98 0.17L277.98 0.17Q276.32 0.49 275.03 0.49 273.73 0.49 272.74 0.37 271.75 0.24 270.84-0.11 269.92-0.46 269.14-1.1 268.36-1.73 267.78-2.78L267.78-2.78Q266.53-5 266.53-8.12 266.53-11.23 266.98-12.95 267.43-14.67 268.48-15.82L268.48-15.82Q270.56-18.09 275.47-18.09 280.37-18.09 285.94-16.24L285.94-16.24 285.94-19.41Q285.94-24.71 281.57-25.68L281.57-25.68Q280.15-26 278.32-26L278.32-26Q274.15-26 269.66-24.34L269.66-24.34 268.75-27.86Q270-28.69 275.1-29.35L275.1-29.35Q276.71-29.54 278.97-29.54 281.23-29.54 283.4-29 285.57-28.47 287.01-27.25L287.01-27.25Q289.94-24.83 289.94-19.41L289.94-19.41ZM285.84-13.18L285.84-13.18Q280.13-14.62 275.29-14.62L275.29-14.62Q272.32-14.62 271.34-12.92L271.34-12.92Q270.68-11.72 270.68-9.38 270.68-7.03 270.94-5.98 271.19-4.93 271.78-4.25L271.78-4.25Q272.93-2.95 275.56-2.95L275.56-2.95Q279.69-2.95 283.74-5.08L283.74-5.08Q284.99-5.71 285.99-6.49L285.99-6.49Q285.84-9.13 285.84-13.18ZM313.92-4.57L315.31-1.39Q311.33 0.49 307.96 0.49L307.96 0.49Q301.85 0.49 301.02-4.74L301.02-4.74Q300.83-5.98 300.83-8.35L300.83-8.35 300.83-25.66 297.31-25.66 297.31-28.66 300.83-29.05 301.46-35.69 304.86-35.69 304.86-29.05 313.33-29.05 313.33-25.66 304.86-25.66 304.86-8.42Q304.86-5.42 305.3-4.59L305.3-4.59Q306.1-3.08 308.52-3.08 310.94-3.08 313.92-4.57L313.92-4.57ZM343.41-5.03L344.6-1.54Q339.55 0.49 333.44 0.49L333.44 0.49Q329.9 0.49 327.44-0.24L327.44-0.24Q323.51-1.37 322.21-4.88L322.21-4.88Q321.02-8.18 321.02-14.65L321.02-14.65 321.02-15.89Q321.02-23.63 324.24-26.76L324.24-26.76Q327.15-29.54 333.93-29.54L333.93-29.54Q340.55-29.54 342.97-26.27L342.97-26.27Q344.14-24.68 344.52-22.42 344.89-20.17 344.89-18.12L344.89-18.12Q344.89-14.92 344.75-13.16L344.75-13.16Q341.31-13.01 338.57-13.01L338.57-13.01Q338.57-13.01 334.64-13.01L334.64-13.01Q328.49-13.01 325.17-13.55L325.17-13.55Q325.17-7.93 326.58-5.71L326.58-5.71Q328.32-3 333.49-3 338.67-3 343.41-5.03L343.41-5.03ZM325.17-16.41L340.77-16.41 340.77-18.75Q340.77-22.58 339.28-24.22L339.28-24.22Q337.62-26.05 333.54-26.05L333.54-26.05Q328.66-26.05 326.88-23.93L326.88-23.93Q325.17-21.9 325.17-16.41L325.17-16.41ZM353.44-2.39L355.19-5.76Q360.22-2.95 365.3-2.95L365.3-2.95Q369.53-2.95 370.26-5.96L370.26-5.96Q370.5-6.98 370.5-8.46 370.5-9.94 370.16-10.75 369.82-11.57 369.01-11.98 368.21-12.38 366.88-12.57 365.55-12.77 363.5-13.12 361.44-13.48 359.74-13.92 358.03-14.36 356.83-15.19L356.83-15.19Q354.29-16.97 354.39-21.19L354.39-21.19 354.39-21.8Q354.39-26.25 357.32-28.13L357.32-28.13Q360.15-29.98 366.67-29.39L366.67-29.39Q371.11-28.98 373.75-27.86L373.75-27.86 372.6-24.17Q369.67-25.42 365.57-25.98L365.57-25.98Q364.3-26.15 363.19-26.15 362.08-26.15 361.18-25.98 360.27-25.81 359.66-25.34L359.66-25.34Q358.49-24.39 358.44-21.8L358.44-21.8Q358.37-18.75 360.15-17.92L360.15-17.92Q361.86-17.11 364.2-16.81 366.55-16.5 368.04-16.27 369.53-16.04 370.75-15.65 371.97-15.26 372.85-14.4L372.85-14.4Q374.68-12.67 374.63-8.37L374.63-8.37Q374.51-0.88 368.38 0.17L368.38 0.17Q366.52 0.49 364.67 0.49 362.81 0.49 361.26 0.26 359.71 0.02 358.3-0.39L358.3-0.39Q355.61-1.15 353.44-2.39L353.44-2.39Z" opacity="1" transform="matrix(1,0,0,1,0,0)" fill="#096a2e" class="wordmark-text-0" data-fill-palette-color="primary" id="text-0"></path></svg></g></svg></g></svg></g></svg></g><g><svg viewBox="0 0 105.3075896789722 105.3075896789722" height="105.3075896789722" width="105.3075896789722"><g><svg></svg></g><g id="icon-0"><svg viewBox="0 0 105.3075896789722 105.3075896789722" height="105.3075896789722" width="105.3075896789722"><g><path d="M0 52.654c0-29.08 23.574-52.654 52.654-52.654 29.08 0 52.654 23.574 52.654 52.654 0 29.08-23.574 52.654-52.654 52.654-29.08 0-52.654-23.574-52.654-52.654zM52.654 101.215c26.819 0 48.561-21.741 48.561-48.561 0-26.819-21.741-48.561-48.561-48.561-26.819 0-48.561 21.741-48.561 48.561 0 26.819 21.741 48.561 48.561 48.561z" data-fill-palette-color="accent" fill="#8abe53" stroke="transparent"></path></g><g transform="matrix(1,0,0,1,26.95862522560328,26.958111311932733)"><svg viewBox="0 0 51.390339227765644 51.39136705510674" height="51.39136705510674" width="51.390339227765644"><g><svg version="1.1" xmlns="http://www.w3.org/2000/svg" xmlns:xlink="http://www.w3.org/1999/xlink" x="0" y="0" viewBox="0 0 99.998 100" enable-background="new 0 0 99.998 100" xml:space="preserve" id="dxe-0" width="51.390339227765644" height="51.39136705510674" class="icon-dxe-0" data-fill-palette-color="accent"><path fill="#8abe53" d="M83.999 71.808L81.06 71.807 81.064 65.928 84.002 65.929A4.416 4.416 0 0 0 88.412 61.518V49.759A4.417 4.417 0 0 0 84 45.348H81.06V39.469H83.999C89.674 39.469 94.29 44.086 94.29 49.759V61.518C94.29 67.191 89.674 71.808 83.999 71.808" data-fill-palette-color="accent"></path><path fill="#8abe53" d="M0 92.65C0 96.713 3.262 100 7.294 100H92.703C96.735 100 99.998 96.713 99.998 92.65z" data-fill-palette-color="accent"></path><path fill="#8abe53" d="M42.542 10.74C45.841 20.639 37.314 23.28 37.314 23.28L37.275 23.341C37.361 23.197 39.34 19.727 36.964 12.599 33.665 2.7 42.192 0.06 42.192 0.06L42.231 0C42.144 0.143 40.167 3.615 42.542 10.74" data-fill-palette-color="accent"></path><path fill="#8abe53" d="M52.787 10.74C56.085 20.639 47.559 23.28 47.559 23.28L47.52 23.341C47.605 23.197 49.584 19.727 47.209 12.599 43.909 2.7 52.438 0.06 52.438 0.06L52.478 0C52.39 0.143 50.412 3.615 52.787 10.74" data-fill-palette-color="accent"></path><path fill="#8abe53" d="M63.032 10.74C66.331 20.639 57.805 23.28 57.805 23.28L57.766 23.341C57.851 23.197 59.83 19.727 57.455 12.599 54.156 2.7 62.684 0.06 62.684 0.06L62.723 0C62.636 0.143 60.658 3.615 63.032 10.74" data-fill-palette-color="accent"></path><path fill="#8abe53" d="M22.069 29.18V76.218C22.069 82.718 27.329 87.977 33.828 87.977H66.168C72.667 87.977 77.927 82.718 77.927 76.218V29.18zM69.107 74.748A1.471 1.471 0 0 1 66.167 74.748V36.529A1.47 1.47 0 1 1 69.107 36.529z" data-fill-palette-color="accent"></path></svg></g></svg></g></svg></g></svg></g></svg></g><defs></defs></svg><rect width="395.52" height="79.75239641332418" fill="none" stroke="none" visibility="hidden"></rect></g></svg></g></svg>